<mxfile host="65bd71144e">
    <diagram id="nfQavMIVKfiS5g-oFqcr" name="Page-1">
        <mxGraphModel dx="530" dy="318" grid="1" gridSize="10" guides="1" tooltips="1" connect="1" arrows="1" fold="1" page="1" pageScale="1" pageWidth="827" pageHeight="1169" math="0" shadow="0">
            <root>
                <mxCell id="0"/>
                <mxCell id="1" parent="0"/>
                <mxCell id="4" value="" style="edgeStyle=none;html=1;fontFamily=Helvetica;fontSize=13;" parent="1" source="2" target="3" edge="1">
                    <mxGeometry relative="1" as="geometry"/>
                </mxCell>
                <mxCell id="2" value="&lt;h2&gt;Start&lt;/h2&gt;" style="ellipse;whiteSpace=wrap;html=1;fontFamily=Helvetica;align=center;" parent="1" vertex="1">
                    <mxGeometry x="100" y="70" width="120" height="50" as="geometry"/>
                </mxCell>
                <mxCell id="6" value="" style="edgeStyle=none;html=1;fontFamily=Helvetica;fontSize=13;" parent="1" source="3" target="5" edge="1">
                    <mxGeometry relative="1" as="geometry"/>
                </mxCell>
                <mxCell id="3" value="arrInput, i, j = 0, len = Size(arrInp), arrInfo(len), count" style="whiteSpace=wrap;html=1;" parent="1" vertex="1">
                    <mxGeometry x="80" y="150" width="160" height="60" as="geometry"/>
                </mxCell>
                <mxCell id="8" value="" style="edgeStyle=none;html=1;fontFamily=Helvetica;fontSize=13;" parent="1" source="5" target="7" edge="1">
                    <mxGeometry relative="1" as="geometry"/>
                </mxCell>
                <mxCell id="16" value="" style="edgeStyle=none;html=1;fontFamily=Helvetica;fontSize=13;" parent="1" source="5" target="15" edge="1">
                    <mxGeometry relative="1" as="geometry">
                        <Array as="points">
                            <mxPoint x="390" y="260"/>
                            <mxPoint x="390" y="500"/>
                            <mxPoint x="160" y="500"/>
                        </Array>
                    </mxGeometry>
                </mxCell>
                <mxCell id="5" value="i = 0, len - 1" style="shape=hexagon;perimeter=hexagonPerimeter2;whiteSpace=wrap;html=1;fixedSize=1;fontFamily=Helvetica;fontSize=13;" parent="1" vertex="1">
                    <mxGeometry x="100" y="240" width="120" height="40" as="geometry"/>
                </mxCell>
                <mxCell id="10" value="True" style="edgeStyle=none;html=1;fontFamily=Helvetica;fontSize=13;" parent="1" source="7" target="9" edge="1">
                    <mxGeometry y="20" relative="1" as="geometry">
                        <mxPoint as="offset"/>
                    </mxGeometry>
                </mxCell>
                <mxCell id="12" value="False" style="edgeStyle=none;html=1;fontFamily=Helvetica;fontSize=13;exitX=1;exitY=0.5;exitDx=0;exitDy=0;" parent="1" source="7" target="11" edge="1">
                    <mxGeometry x="-0.5714" y="10" relative="1" as="geometry">
                        <Array as="points">
                            <mxPoint x="310" y="340"/>
                        </Array>
                        <mxPoint as="offset"/>
                    </mxGeometry>
                </mxCell>
                <mxCell id="7" value="Size(arrInp[ i ]) &amp;gt; 3" style="rhombus;whiteSpace=wrap;html=1;fontSize=13;" parent="1" vertex="1">
                    <mxGeometry x="80" y="310" width="160" height="60" as="geometry"/>
                </mxCell>
                <mxCell id="13" style="edgeStyle=none;html=1;entryX=0;entryY=0.5;entryDx=0;entryDy=0;fontFamily=Helvetica;fontSize=13;" parent="1" source="9" target="5" edge="1">
                    <mxGeometry relative="1" as="geometry">
                        <Array as="points">
                            <mxPoint x="60" y="430"/>
                            <mxPoint x="60" y="340"/>
                            <mxPoint x="60" y="260"/>
                        </Array>
                    </mxGeometry>
                </mxCell>
                <mxCell id="9" value="arrInfo[ i ] = 1,&lt;br&gt;count += 1" style="whiteSpace=wrap;html=1;fontSize=13;" parent="1" vertex="1">
                    <mxGeometry x="100" y="410" width="120" height="40" as="geometry"/>
                </mxCell>
                <mxCell id="14" style="edgeStyle=none;html=1;fontFamily=Helvetica;fontSize=13;" parent="1" source="11" edge="1">
                    <mxGeometry relative="1" as="geometry">
                        <mxPoint x="60" y="430" as="targetPoint"/>
                        <Array as="points">
                            <mxPoint x="310" y="480"/>
                            <mxPoint x="60" y="480"/>
                            <mxPoint x="60" y="460"/>
                        </Array>
                    </mxGeometry>
                </mxCell>
                <mxCell id="11" value="arrInfo[ i ] = 0" style="whiteSpace=wrap;html=1;fontSize=13;" parent="1" vertex="1">
                    <mxGeometry x="250" y="410" width="120" height="40" as="geometry"/>
                </mxCell>
                <mxCell id="18" value="" style="edgeStyle=none;html=1;fontFamily=Helvetica;fontSize=13;" parent="1" source="15" target="17" edge="1">
                    <mxGeometry relative="1" as="geometry"/>
                </mxCell>
                <mxCell id="15" value="arrOut(count)" style="whiteSpace=wrap;html=1;fontSize=13;" parent="1" vertex="1">
                    <mxGeometry x="100" y="525" width="120" height="35" as="geometry"/>
                </mxCell>
                <mxCell id="20" value="" style="edgeStyle=none;html=1;fontFamily=Helvetica;fontSize=13;" parent="1" source="17" target="19" edge="1">
                    <mxGeometry relative="1" as="geometry"/>
                </mxCell>
                <mxCell id="26" value="" style="edgeStyle=none;html=1;fontFamily=Helvetica;fontSize=13;" edge="1" parent="1" source="17" target="25">
                    <mxGeometry relative="1" as="geometry"/>
                </mxCell>
                <mxCell id="17" value="i = 0, len - 1" style="shape=hexagon;perimeter=hexagonPerimeter2;whiteSpace=wrap;html=1;fixedSize=1;fontSize=13;" parent="1" vertex="1">
                    <mxGeometry x="100" y="600" width="120" height="40" as="geometry"/>
                </mxCell>
                <mxCell id="22" value="True" style="edgeStyle=none;html=1;fontFamily=Helvetica;fontSize=13;" parent="1" source="19" target="21" edge="1">
                    <mxGeometry y="20" relative="1" as="geometry">
                        <mxPoint as="offset"/>
                    </mxGeometry>
                </mxCell>
                <mxCell id="23" value="False" style="edgeStyle=none;html=1;entryX=0;entryY=0.5;entryDx=0;entryDy=0;fontFamily=Helvetica;fontSize=13;" edge="1" parent="1" source="19" target="17">
                    <mxGeometry x="-0.8889" y="-20" relative="1" as="geometry">
                        <Array as="points">
                            <mxPoint x="40" y="700"/>
                            <mxPoint x="40" y="620"/>
                        </Array>
                        <mxPoint as="offset"/>
                    </mxGeometry>
                </mxCell>
                <mxCell id="19" value="arrInfo[ i ] = 1" style="rhombus;whiteSpace=wrap;html=1;fontSize=13;" parent="1" vertex="1">
                    <mxGeometry x="80" y="670" width="160" height="60" as="geometry"/>
                </mxCell>
                <mxCell id="24" style="edgeStyle=none;html=1;fontFamily=Helvetica;fontSize=13;" edge="1" parent="1" source="21">
                    <mxGeometry relative="1" as="geometry">
                        <mxPoint x="40" y="700" as="targetPoint"/>
                        <Array as="points">
                            <mxPoint x="40" y="800"/>
                        </Array>
                    </mxGeometry>
                </mxCell>
                <mxCell id="21" value="arrOut[ j ] = arrInp[ i ],&lt;br&gt;j += 1" style="whiteSpace=wrap;html=1;fontSize=13;" parent="1" vertex="1">
                    <mxGeometry x="80" y="770" width="160" height="50" as="geometry"/>
                </mxCell>
                <mxCell id="28" value="" style="edgeStyle=none;html=1;fontFamily=Helvetica;fontSize=13;" edge="1" parent="1" source="25" target="27">
                    <mxGeometry relative="1" as="geometry"/>
                </mxCell>
                <mxCell id="25" value="arrOut" style="shape=parallelogram;perimeter=parallelogramPerimeter;whiteSpace=wrap;html=1;fixedSize=1;fontSize=13;" vertex="1" parent="1">
                    <mxGeometry x="270" y="600" width="120" height="40" as="geometry"/>
                </mxCell>
                <mxCell id="27" value="&lt;h2&gt;End&lt;/h2&gt;" style="ellipse;whiteSpace=wrap;html=1;fontSize=13;" vertex="1" parent="1">
                    <mxGeometry x="270" y="765" width="120" height="60" as="geometry"/>
                </mxCell>
                <mxCell id="29" value="&lt;h1&gt;Блок-схема алгоритма решения задачи&lt;/h1&gt;" style="text;html=1;strokeColor=none;fillColor=none;align=center;verticalAlign=middle;whiteSpace=wrap;rounded=0;fontFamily=Helvetica;fontSize=13;" vertex="1" parent="1">
                    <mxGeometry x="20" y="20" width="530" height="30" as="geometry"/>
                </mxCell>
            </root>
        </mxGraphModel>
    </diagram>
</mxfile>